# xmcd
#
# Track frame offsets:
#  150
#  19237
#  36477
#  50797
#  61957
#  78727
#  92267
#  111295
#  130760
#  148222
#  163382
#  181085
#
# Disc length: 2633 seconds
#
# Revision: 0
# Processed by: cddbd v1.5.1PL2 Copyright (c) Steve Scherf et al.
# Submitted via: Collectorz.com Music Collector 6.9
#
DISCID=ac0a470c
DTITLE=Dirk Busch - Coming Home
DYEAR=1998
DGENRE=Liedermacher
TTITLE0=Raining
TTITLE1=Coming Home
TTITLE2=Important People
TTITLE3=Hey Superman
TTITLE4=The Last Words You Said
TTITLE5=Why Don´t My Honk My Tonky
TTITLE6=You Can Find A Way
TTITLE7=A Girl Like You
TTITLE8=It Has To Be You
TTITLE9=She Is Always In Trouble
TTITLE10=Your Smile
TTITLE11=Till The End Of Time
EXTD=
EXTT0=
EXTT1=
EXTT2=
EXTT3=
EXTT4=
EXTT5=
EXTT6=
EXTT7=
EXTT8=
EXTT9=
EXTT10=
EXTT11=
PLAYORDER=
